<?xml version="1.0" encoding="UTF-8" standalone="no"?>
<!-- Created with Inkscape (http://www.inkscape.org/) -->

<svg
   width="118.52585mm"
   height="118.50078mm"
   viewBox="0 0 118.52585 118.50078"
   version="1.1"
   id="svg1"
   xmlns="http://www.w3.org/2000/svg"
   xmlns:svg="http://www.w3.org/2000/svg">
  <defs
     id="defs1" />
  <g
     id="layer1"
     transform="translate(321.04044,-64.934019)">
    <title
       id="title1">LinkedIn</title>
    <title
       id="title1-2">Github</title>
    <path
       d="m -202.88479,115.36146 c -0.47625,-2.11666 -1.79917,-4.07458 -3.3073,-4.89479 -0.47625,-0.26458 -3.43958,-0.58208 -6.61458,-0.71437 -5.31812,-0.23813 -5.90021,-0.34396 -7.59354,-1.32292 -2.6723,-1.56104 -3.38667,-3.25437 -3.41313,-7.80521 -0.0265,-8.731247 -3.65125,-16.853957 -10.82146,-24.156457 -5.10646,-5.21229 -10.82146,-8.73125 -17.33021,-10.71562 -1.56104,-0.47625 -5.05354,-0.635 -16.74812,-0.76729 -18.36208,-0.21167 -22.43667,0.15875 -28.68083,2.64583 -11.50938,4.55083 -19.76438,14.23458 -22.78063,26.61708 -0.55562,2.32834 -0.68792,6.058957 -0.82021,27.490207 -0.15875,26.85521 0.0265,30.7975 1.69334,36.11563 4.1275,13.12333 15.84854,22.83354 27.6225,24.95021 3.91583,0.71437 52.20229,0.87312 57.15,0.21167 8.59895,-1.16417 15.34583,-4.63021 21.66937,-11.08605 4.5773,-4.68312 7.4348,-9.73666 9.31334,-16.43062 1.29646,-4.65667 1.19062,-37.7825 0.66146,-40.1373 z m -85.2223,-16.827497 c 2.06375,-2.0902 2.64583,-2.16958 15.5575,-2.16958 11.61521,0 12.01208,0.0265 13.70542,0.89958 2.46062,1.24355 3.54541,2.989797 3.54541,5.794377 0,2.51354 -1.00541,4.28625 -3.25437,5.715 -1.21708,0.76729 -1.93146,0.82021 -13.30854,0.87312 -7.01146,0.0529 -12.62063,-0.10583 -13.44084,-0.3175 -4.39208,-1.24354 -6.0325,-7.54062 -2.80458,-10.794997 z m 50.74708,52.863747 -3.94229,0.635 -20.50521,0.23813 c -18.01812,0.21167 -23.09812,-0.10583 -24.05062,-0.52917 -1.87854,-0.82021 -3.65125,-3.09562 -3.94229,-5.13291 -0.29104,-1.93146 0.68791,-4.5773 2.16958,-5.92667 1.87854,-1.69333 2.69875,-1.74625 25.74396,-1.77271 23.70667,-0.0265 23.57437,-0.0265 25.82333,2.06375 3.20146,2.98979 2.51354,8.255 -1.29646,10.42458 z"
       id="path1-3"
       style="fill:#ffffff;stroke-width:0.264583" />
    <title
       id="title1-26">Twitter</title>
  </g>
</svg>
