<?xml version="1.0" encoding="UTF-8" standalone="no"?>
<!-- Created with Inkscape (http://www.inkscape.org/) -->

<svg
   width="116.03195mm"
   height="113.19365mm"
   viewBox="0 0 116.03195 113.19365"
   version="1.1"
   id="svg1"
   xmlns="http://www.w3.org/2000/svg"
   xmlns:svg="http://www.w3.org/2000/svg">
  <defs
     id="defs1" />
  <g
     id="layer1"
     transform="translate(150.39424,-34.307879)">
    <title
       id="title1">LinkedIn</title>
    <title
       id="title1-2">Github</title>
    <path
       d="m -42.144742,63.202495 c -5.18795,-8.88894 -12.22507,-15.92633 -21.11322,-21.11375 -8.88947,-5.187686 -18.59412,-7.780867 -29.12083,-7.780867 -10.525388,0 -20.233218,2.593975 -29.120838,7.780867 -8.88894,5.187155 -15.9258,12.22481 -21.11375,21.11375 -5.18716,8.88868 -7.78087,18.59518 -7.78087,29.11925 0,12.641795 3.68829,24.009615 11.06673,34.106385 7.37764,10.09755 16.90846,17.08467 28.59167,20.96214 1.35996,0.25241 2.3667,0.0749 3.02128,-0.52811 0.65484,-0.60378 0.98187,-1.35996 0.98187,-2.26536 0,-0.15108 -0.013,-1.51025 -0.0381,-4.07909 -0.0259,-2.56883 -0.0381,-4.80986 -0.0381,-6.722 l -1.73752,0.30057 c -1.10781,0.20293 -2.50534,0.28892 -4.19259,0.26458 -1.68646,-0.0236 -3.4372,-0.20029 -5.24986,-0.5289 -1.81346,-0.3257 -3.50018,-1.08109 -5.06148,-2.26457 -1.56052,-1.18348 -2.66833,-2.73261 -3.32317,-4.64502 l -0.75538,-1.73831 c -0.50351,-1.15729 -1.2962,-2.4429 -2.37914,-3.85207 -1.08294,-1.4105 -2.17805,-2.3667 -3.28586,-2.8702 l -0.5289,-0.37862 c -0.35243,-0.25162 -0.67945,-0.5551 -0.98187,-0.90726 -0.30216,-0.35216 -0.52837,-0.70458 -0.67945,-1.05754 -0.15134,-0.35322 -0.0259,-0.64293 0.37756,-0.87021 0.40349,-0.22728 1.13268,-0.33761 2.19075,-0.33761 l 1.51024,0.22569 c 1.00727,0.20188 2.25319,0.80486 3.73936,1.81266 1.48537,1.007 2.70642,2.31616 3.66342,3.92695 1.15887,2.06533 2.55508,3.63907 4.19259,4.72201 1.63618,1.08294 3.28586,1.62349 4.94744,1.62349 1.66158,0 3.09668,-0.12594 4.30583,-0.3765 1.20782,-0.25189 2.34103,-0.63051 3.3991,-1.13374 0.45323,-3.37556 1.68725,-5.96874 3.70099,-7.7814 -2.8702,-0.30162 -5.45068,-0.75591 -7.74276,-1.35996 -2.29077,-0.60484 -4.65799,-1.58644 -7.1001,-2.94746 -2.44342,-1.35916 -4.4704,-3.04694 -6.08144,-5.06042 -1.61132,-2.01453 -2.9337,-4.65931 -3.96531,-7.93194 -1.03214,-3.273965 -1.54835,-7.050625 -1.54835,-11.331055 0,-6.09467 1.98967,-11.28104 5.96821,-15.56199 -1.86373,-4.58206 -1.68778,-9.71868 0.52837,-15.40934 1.4605,-0.45376 3.62638,-0.11324 6.49658,1.01944 2.87073,1.13321 4.97258,2.10397 6.30767,2.90883 1.33509,0.8046 2.4048,1.48643 3.21072,2.03941 4.68445,-1.30889 9.518648,-1.96347 14.503928,-1.96347 4.98528,0 9.82054,0.65458 14.50525,1.96347 l 2.87046,-1.81213 c 1.96295,-1.20915 4.28096,-2.31722 6.94849,-3.32449 2.66912,-1.00674 4.71011,-1.28402 6.12087,-0.83026 2.26536,5.69092 2.46724,10.82727 0.60299,15.40933 3.97827,4.28096 5.96873,9.46864 5.96873,15.562 0,4.28043 -0.51805,8.06899 -1.5486,11.368085 -1.03188,3.29962 -2.36564,5.94175 -4.00183,7.93195 -1.63803,1.98993 -3.67797,3.66448 -6.12007,5.02338 -2.44264,1.35996 -4.81066,2.34156 -7.10142,2.9464 -2.29182,0.60483 -4.8723,1.05939 -7.7425,1.36154 2.61778,2.26537 3.92694,5.84121 3.92694,10.72595 v 15.9377 c 0,0.9054 0.31486,1.66132 0.94509,2.26536 0.62945,0.60299 1.62349,0.78052 2.98345,0.52785 11.68479,-3.87694 21.21561,-10.86433 28.59298,-20.96188 7.37659,-10.09676 11.0662,-21.46459 11.0662,-34.106385 -0.003,-10.52274 -2.59768,-20.22845 -7.78245,-29.11713 z"
       id="path1"
       style="fill:#ffffff;stroke-width:0.264583" />
    <title
       id="title1-26">Twitter</title>
  </g>
</svg>
