<?xml version="1.0" encoding="UTF-8" standalone="no"?>
<!-- Created with Inkscape (http://www.inkscape.org/) -->

<svg
   width="113.80179mm"
   height="108.74428mm"
   viewBox="0 0 113.80179 108.74428"
   version="1.1"
   id="svg1"
   xmlns="http://www.w3.org/2000/svg"
   xmlns:svg="http://www.w3.org/2000/svg">
  <defs
     id="defs1" />
  <g
     id="layer1"
     transform="translate(263.32123,96.064634)">
    <title
       id="title1">LinkedIn</title>
    <path
       d="m -149.51945,-29.3936 v 42.073251 h -24.39141 V -26.57579 c 0,-9.86128 -3.52795,-16.59123 -12.35683,-16.59123 -6.73974,0 -10.75055,4.53549 -12.51506,8.92281 -0.64347,1.56845 -0.8091,3.75153 -0.8091,5.94704 v 40.976821 h -24.3996 c 0,0 0.32861,-66.485831 0,-73.374251 h 24.39722 v 10.4005 c -0.0495,0.0778 -0.11377,0.16166 -0.16034,0.23707 h 0.16034 v -0.23707 c 3.24141,-4.99242 9.03023,-12.124257 21.98741,-12.124257 16.05306,-2.7e-4 28.08737,10.487017 28.08737,33.024757 z m -99.99503,-66.67103 c -8.34708,0 -13.80676,5.475023 -13.80676,12.674863 0,7.04295 5.30172,12.68413 13.48291,12.68413 h 0.16298 c 8.50873,0 13.8004,-5.64013 13.8004,-12.68413 -0.16034,-7.19984 -5.29167,-12.674863 -13.63953,-12.674863 z m -12.35763,108.744281 h 24.39035 V -60.6946 h -24.39035 z"
       id="path1-6"
       style="fill:#ffffff;stroke-width:0.264583" />
    <title
       id="title1-2">Github</title>
    <title
       id="title1-26">Twitter</title>
  </g>
</svg>
