<?xml version="1.0" encoding="UTF-8" standalone="no"?>
<!-- Created with Inkscape (http://www.inkscape.org/) -->

<svg
   width="146.18736mm"
   height="165.42535mm"
   viewBox="0 0 146.18736 165.42535"
   version="1.1"
   id="svg1"
   xmlns="http://www.w3.org/2000/svg"
   xmlns:svg="http://www.w3.org/2000/svg">
  <defs
     id="defs1" />
  <g
     id="layer1"
     transform="translate(104.36098,245.57191)">
    <title
       id="title1">LinkedIn</title>
    <title
       id="title1-2">Github</title>
    <title
       id="title1-26">Twitter</title>
    <title
       id="title1-8">Logo</title>
    <polygon
       stroke="#64ffda"
       stroke-width="5"
       stroke-linecap="round"
       stroke-linejoin="round"
       points="3,42 3,93 48,119 93,94 93,43 48,16 "
       id="polygon1"
       transform="matrix(1.4798597,0,0,1.4798597,-102.30056,-262.74978)"
       style="fill:none;stroke:#ffffff;stroke-width:8.78462;stroke-dasharray:none;stroke-opacity:1" />
    <path
       fill="#64ffda"
       d="m -49.025611,-213.91441 c 1.479858,0 2.959721,1.47984 2.959721,4.43958 0,2.95973 -1.479863,8.87915 -4.439579,17.75831 -1.479863,5.91942 -2.959721,13.31874 -2.959721,19.23818 -1.479858,7.3993 -1.479858,13.31873 -1.479858,17.75831 0,4.43958 0,8.87916 0,14.7986 0,0 0,1.47986 0,1.47986 0,1.47986 0,2.95972 -1.479864,4.43958 0,0 -1.479857,1.47986 -2.959715,1.47986 -1.479864,0 -2.959722,-1.47986 -2.959722,-2.95972 -1.479858,-2.95972 -1.479858,-5.91944 -1.479858,-10.35902 0,-10.35901 1.479858,-22.19789 4.43958,-36.99649 1.479858,-14.79858 4.439579,-23.67774 5.919437,-26.63747 1.479858,-2.95974 2.959721,-4.43958 4.439579,-4.43958 z"
       id="path1-7"
       style="fill:#ffffff;stroke-width:1.47986" />
    <path
       fill="#64ffda"
       d="m -29.787436,-141.40129 c -1.479858,5.91944 -2.959716,13.31874 -4.43958,22.1979 l -1.479858,8.87916 c 0,1.47985 0,2.95972 -1.479857,4.43957 -1.479864,0 -1.479864,1.47986 -2.959722,1.47986 0,0 -1.479858,-1.47986 -2.959721,-1.47986 -1.479858,-1.47985 -1.479858,-1.47985 -1.479858,-2.95972 0,-1.47985 0,-2.95971 1.479858,-5.91943 4.439579,-22.1979 7.3993,-42.91594 7.3993,-59.19439 v -4.43958 c 0,-2.95974 1.479858,-5.91942 1.479858,-7.39932 1.479864,-1.47984 2.959722,-1.47984 4.43958,-1.47984 1.479857,0 1.479857,0 2.959721,1.47984 0,1.4799 0,2.95974 0,4.43958 0,2.95974 0,7.39932 0,11.8389 -1.479864,4.43958 -1.479864,7.39929 -1.479864,8.87916 4.43958,-8.87916 8.879159,-14.7986 14.798601,-19.23816 4.4395796,-4.43958 8.8791588,-5.91948 13.31873796,-5.91948 2.95971574,0 5.91943704,1.4799 7.39929494,2.95974 2.9597211,2.95974 2.9597211,5.91944 2.9597211,8.87916 0,8.87916 -2.9597211,19.23817 -10.35901604,26.63747 -7.39930056,7.3993 -14.79860096,11.83888 -22.19789596,11.83888 -1.479863,0 -2.959721,0 -4.439579,-1.47986 -1.479864,0 -1.479864,-2.95972 -2.959721,-4.43958 z m 28.1173325,-36.99649 c -4.4395792,0 -10.3590165,4.43958 -16.2784535,11.83887 -5.919442,8.87916 -8.879158,14.7986 -8.879158,19.23818 0,1.47986 0,1.47986 1.479858,2.95972 1.479858,1.47986 2.959721,1.47986 4.439579,1.47986 4.439579,0 8.879158,-2.95972 14.7985953,-8.87916 5.91944266,-7.3993 8.8791584,-13.31873 8.8791584,-19.23818 0,-2.95971 0,-4.43957 -1.4798579,-5.91943 -1.47985784,0 -1.47985784,-1.47986 -2.9597213,-1.47986 z"
       id="path2"
       style="fill:#ffffff;stroke-width:1.47986" />
  </g>
</svg>
