<?xml version="1.0" encoding="UTF-8" standalone="no"?>
<!-- Created with Inkscape (http://www.inkscape.org/) -->

<svg
   width="161.92474mm"
   height="131.5294mm"
   viewBox="0 0 161.92474 131.5294"
   version="1.1"
   id="svg1"
   xmlns="http://www.w3.org/2000/svg"
   xmlns:svg="http://www.w3.org/2000/svg">
  <defs
     id="defs1" />
  <g
     id="layer1"
     transform="translate(245.43517,-211.22767)">
    <title
       id="title1">LinkedIn</title>
    <title
       id="title1-2">Github</title>
    <title
       id="title1-26">Twitter</title>
    <path
       d="m -83.510439,226.78968 c -5.95974,2.64081 -12.35445,4.43177 -19.073281,5.23134 6.860381,-4.10818 12.111831,-10.62434 14.600761,-18.36499 -6.43519,3.80444 -13.538461,6.56696 -21.107131,8.0645 -6.06081,-6.46562 -14.68173,-10.49285 -24.24377,-10.49285 -18.34463,0 -33.21871,14.87409 -33.21871,33.20865 0,2.60033 0.29342,5.14006 0.86016,7.56867 -27.60292,-1.38641 -52.07926,-14.61108 -68.46093,-34.70645 -2.86359,4.89744 -4.49263,10.60397 -4.49263,16.69547 0,11.52499 5.86872,21.69398 14.77301,27.6434 -5.4438,-0.18203 -10.56375,-1.67957 -15.04606,-4.16877 v 0.41487 c 0,16.08825 11.45408,29.51533 26.64169,32.57126 -2.78262,0.74877 -5.71685,1.16364 -8.75242,1.16364 -2.14497,0 -4.21931,-0.21246 -6.25316,-0.61727 4.22937,13.20455 16.49307,22.80681 31.02319,23.07007 -11.36306,8.90429 -25.69078,14.19622 -41.25277,14.19622 -2.68129,0 -5.32236,-0.16192 -7.92269,-0.45535 14.70211,9.4406 32.1564,14.94499 50.91589,14.94499 61.10499,0 94.50599,-50.6124 94.50599,-94.50598 l -0.11139,-4.30028 c 6.526221,-4.65481 12.172161,-10.50316 16.614251,-17.16114 z"
       id="path1-1"
       style="fill:#ffffff;stroke-width:0.264583" />
  </g>
</svg>
